<svg id="avoid_phone_calls" data-name="avoid phone calls" xmlns="http://www.w3.org/2000/svg" width="145" height="154" viewBox="0 0 145 154">
  <defs>
    <style>
      .cls-1 {
        fill: #111;
        fill-rule: evenodd;
      }
    </style>
  </defs>
  <path id="Polygon_1" data-name="Polygon 1" class="cls-1" d="M45.121,64.672Q17.743,116.009,72.5,116.008T99.879,64.672Q72.5,13.336,45.121,64.672ZM81.779,91.98a2.888,2.888,0,0,0-1.277-.891q-0.319-.185-0.907-0.5T78.527,90q-0.479-.269-0.9-0.521-0.067-.05-0.42-0.294a4.735,4.735,0,0,0-.6-0.361,1.1,1.1,0,0,0-.479-0.118,1.4,1.4,0,0,0-.84.479,8.2,8.2,0,0,0-.924,1.042,10.145,10.145,0,0,1-.89,1.042,1.279,1.279,0,0,1-.773.479,1.13,1.13,0,0,1-.378-0.084,3.508,3.508,0,0,1-.344-0.143q-0.118-.059-0.4-0.235t-0.319-.193a16.651,16.651,0,0,1-6.872-6.872Q64.371,84.184,64.2,83.9t-0.235-.4a3.6,3.6,0,0,1-.143-0.344,1.131,1.131,0,0,1-.084-0.378A1.281,1.281,0,0,1,64.212,82a10.134,10.134,0,0,1,1.042-.891,8.19,8.19,0,0,0,1.042-.924,1.4,1.4,0,0,0,.479-0.84,1.1,1.1,0,0,0-.118-0.479,4.733,4.733,0,0,0-.361-0.6q-0.244-.353-0.294-0.42-0.252-.42-0.521-0.9t-0.588-1.067q-0.319-.588-0.5-0.907A2.886,2.886,0,0,0,63.5,73.7a0.944,0.944,0,0,0-.353-0.05,5.566,5.566,0,0,0-1.184.168,6.707,6.707,0,0,0-1.151.353,4.5,4.5,0,0,0-1.781,2.05,6.517,6.517,0,0,0-.857,3.125,6.449,6.449,0,0,0,.059.882,7.233,7.233,0,0,0,.21.966q0.151,0.538.244,0.8t0.344,0.933q0.252,0.672.3,0.823a15.2,15.2,0,0,0,1.395,2.94,28.23,28.23,0,0,0,8.065,8.065,15.2,15.2,0,0,0,2.94,1.395q0.151,0.05.823,0.3t0.933,0.344q0.26,0.093.8,0.244a7.245,7.245,0,0,0,.966.21,6.449,6.449,0,0,0,.882.059,6.515,6.515,0,0,0,3.125-.857,4.5,4.5,0,0,0,2.05-1.781,6.691,6.691,0,0,0,.353-1.151,5.561,5.561,0,0,0,.168-1.185,0.945,0.945,0,0,0-.05-0.353h0ZM77.768,68.555a0.629,0.629,0,0,0-.46-0.194H74.692a0.663,0.663,0,0,0-.654.654V71.3a0.663,0.663,0,0,0,.654.654h2.616a0.663,0.663,0,0,0,.654-0.654V69.015A0.63,0.63,0,0,0,77.768,68.555Zm0.322-10.79a0.612,0.612,0,0,0-.455-0.194h-3.27a0.612,0.612,0,0,0-.455.194,0.6,0.6,0,0,0-.179.46l0.286,7.848a0.658,0.658,0,0,0,.209.46,0.646,0.646,0,0,0,.465.194h2.616a0.646,0.646,0,0,0,.465-0.194,0.659,0.659,0,0,0,.21-0.46l0.286-7.848A0.6,0.6,0,0,0,78.09,57.764Z"/>
</svg>
