<svg id="free_coupon" data-name="free coupon" xmlns="http://www.w3.org/2000/svg" width="145" height="154" viewBox="0 0 145 154">
  <defs>
    <style>
      .cls-1 {
        fill: #111;
        fill-rule: evenodd;
      }
    </style>
  </defs>
  <path id="_" data-name="" class="cls-1" d="M106.43,72.188L68.22,110.44a5.442,5.442,0,0,1-7.625,0l-5.308-5.308A8.1,8.1,0,0,0,43.827,93.673l-5.266-5.308a5.442,5.442,0,0,1,0-7.625l38.21-38.168a5.442,5.442,0,0,1,7.625,0l5.266,5.266A8.1,8.1,0,0,0,101.122,59.3l5.308,5.266A5.444,5.444,0,0,1,106.43,72.188ZM95.013,69.2l-15.25-15.25a2.749,2.749,0,0,0-3.791,0L49.936,79.982a2.645,2.645,0,0,0,0,3.791l15.25,15.25a2.749,2.749,0,0,0,3.791,0L95.013,72.988A2.645,2.645,0,0,0,95.013,69.2ZM53.77,81.877l24.1-24.1L91.179,71.092l-24.1,24.1Zm10.5-2.918-3.325,3.37L66,87.321l0.84-.852-2.084-2.056,2.213-2.243-0.788-.777-2.213,2.243-1.389-1.37,2.478-2.512Zm19.493-9.639-0.8-.791-2.75,2.788-1.353-1.335,2.391-2.424-0.76-.749L78.1,69.233l-1.339-1.321,2.663-2.7-0.806-.795-3.5,3.551,5.059,4.991ZM79.1,74.051l-0.8-.791-2.75,2.787-1.353-1.335,2.391-2.424-0.76-.749-2.391,2.424-1.339-1.321,2.663-2.7-0.805-.795-3.5,3.551,5.059,4.992ZM71.152,82.1l-1.7-1.677L70.561,79.3l2.891,0.468,1.07-1.085L71.378,78.2a2.068,2.068,0,0,0-.5-2.65,2.1,2.1,0,0,0-1.744-.738,3.828,3.828,0,0,0-2.025,1.272l-1.854,1.88,5.059,4.992ZM67.944,76.79a2.512,2.512,0,0,1,1.125-.773,1.079,1.079,0,0,1,.945.4,1.266,1.266,0,0,1,.463.972,2.206,2.206,0,0,1-.748,1.207l-1.049,1.063L66.87,77.878Z"/>
</svg>
