<svg id="meet_owners_icon" data-name="meet owners icon" xmlns="http://www.w3.org/2000/svg" width="119" height="126" viewBox="0 0 119 126">
  <defs>
    <style>
      .cls-1, .cls-3 {
        fill: #fff;
      }

      .cls-1, .cls-4 {
        stroke: #fff;
        stroke-width: 1px;
      }

      .cls-1, .cls-2, .cls-4 {
        fill-rule: evenodd;
      }

      .cls-2 {
        fill: #111;
      }

      .cls-4 {
        fill: none;
      }
    </style>
  </defs>
  <g>
    <path class="cls-1" d="M30.94,66.727c5.545,3.42-.221,4.15-0.685,5.97-0.815,3.2-2,6.841-4.821,7.207-3.62.47-4.234,4.482-4.439,7.59a37.045,37.045,0,0,0,5.352,1.568l1.741,9.032a43.525,43.525,0,0,1,1.993,8.962,110.239,110.239,0,0,1,0,12.945H17V54.881a23.088,23.088,0,0,1,9.26,1.39C42.657,62.323,30.94,58.753,30.94,66.727Z"/>
    <path id="Shape_30_copy" data-name="Shape 30 copy" class="cls-1" d="M104,120H86.182a94.7,94.7,0,0,1,0-12c0.464-4.686,7.754-15,7.754-15l0.229-5.958s1.879-1.09,3.724-2.025L96,84V81.411c-5.076.924-6.423-2.488-7.369-6.292-0.25.224-1.445,0.316-.629-2.624-0.255-1.867-6.148-2.56-.676-6,0-7.058-1.878-14.876,3.133-12.312C92.168,55.062,94.749,54,97.672,54A15.182,15.182,0,0,1,104,55.31V120Z"/>
  </g>
  <g>
    <path class="cls-2" d="M61.5,61A13.471,13.471,0,0,1,75,74.442C75,81.865,61.5,95,61.5,95S48,81.865,48,74.442A13.471,13.471,0,0,1,61.5,61Z"/>
    <circle class="cls-3" cx="61.5" cy="74.453" r="6.375"/>
    <path class="cls-2" d="M58.01,95L58,119h4.667c1.856,0,2.333-1.018,2.333-3.311v-2.482s-1.555.506-1.555-1.656S65,109.9,65,109.9v-2.482H63.444v-2.483H65V95L61.319,99.28Z"/>
  </g>
  <path class="cls-4" d="M8,46L60,7l51,38"/>
</svg>
