<svg xmlns="http://www.w3.org/2000/svg" xmlns:xlink="http://www.w3.org/1999/xlink" width="145" height="154" viewBox="0 0 145 154">
  <defs>
    <style>
      .cls-1 {
        filter: url(#filter);
      }

      .cls-2, .cls-3 {
        fill: #fff;
      }

      .cls-2 {
        fill-rule: evenodd;
      }

      .cls-3 {
        font-size: 6px;
        font-family: Montserrat;
      }
    </style>
    <filter id="filter" filterUnits="userSpaceOnUse">
      <feFlood result="flood" flood-color="#111"/>
      <feComposite result="composite" operator="in" in2="SourceGraphic"/>
      <feBlend result="blend" mode="darken" in2="SourceGraphic"/>
    </filter>
  </defs>
  <g id="moneyback" class="cls-1">
    <path id="Polygon_2" data-name="Polygon 2" class="cls-2" d="M98.028,72.154l2.483,4.339-4.325,2.519L96.367,79.7c-2.9-.52-6.025-1.011-9.28-1.42a19.283,19.283,0,1,0-33.217.132c-2.921.416-5.7,0.9-8.27,1.417l0.215-.815-4.324-2.519,2.482-4.339L40.448,68.6l3.524-3.55-2.482-4.339,4.324-2.52-1.272-4.832,4.831-1.317,0.025-5,5.008-.025,1.32-4.82,4.843,1.27,2.525-4.315,4.349,2.477L71,38.12l3.558,3.516,4.349-2.477,2.525,4.315,4.843-1.27,1.32,4.82L92.6,47.048l0.025,5,4.831,1.317-1.272,4.832,4.325,2.52-2.483,4.339,3.524,3.55Z"/>
    <path class="cls-2" d="M29.286,84s20.3-6.842,41.143-6.842C92.413,77.156,115,84,115,84l-5.143,15.394A115.366,115.366,0,0,0,71,92.55a99.551,99.551,0,0,0-36.571,6.842Zm5.907,4.451q1.958,2.047,3.826,4.145l0.684-.169q0.673-2.726,1.445-5.451L42.38,92.44q0.613-.138,1.226-0.269l-1.511-7.016q-1,.215-2,0.445-0.645,2.462-1.211,4.927-1.658-1.913-3.387-3.787-1,.265-1.989.544l1.953,6.906q0.6-.17,1.209-0.334Zm15.833-1.332a2.512,2.512,0,0,1-.482,1.938,2.757,2.757,0,0,1-3.718.639,2.515,2.515,0,0,1-1.1-1.665,2.437,2.437,0,0,1,.428-1.955,2.816,2.816,0,0,1,3.82-.656A2.441,2.441,0,0,1,51.026,87.117Zm1.3-.191a3.382,3.382,0,0,0-1.536-2.45,4.422,4.422,0,0,0-5.736.985,3.372,3.372,0,0,0-.632,2.823,3.52,3.52,0,0,0,1.641,2.373,4.309,4.309,0,0,0,5.518-.948A3.522,3.522,0,0,0,52.329,86.926Zm7.427,0.984q-2.4-2.481-4.975-4.874-0.652.078-1.3,0.163L54.4,90.316q0.618-.08,1.236-0.154l-0.627-5.194q2.476,2.337,4.794,4.76,0.674-.06,1.348-0.112-0.281-3.577-.562-7.154-0.654.052-1.307,0.109Q59.521,85.239,59.756,87.91Zm3-5.6L63.2,89.47q2.653-.166,5.31-0.226-0.013-.568-0.026-1.137-2.052.047-4.1,0.156-0.051-.958-0.1-1.917,1.808-.1,3.618-0.144-0.015-.539-0.029-1.077-1.824.049-3.647,0.146-0.051-.949-0.1-1.9,2.058-.11,4.118-0.158l-0.027-1.142Q65.482,82.137,62.754,82.309Zm10.29,4.078q1.426-2.156,2.941-4.282-0.717-.023-1.435-0.038-1.1,1.611-2.147,3.238-1.028-1.64-2.105-3.265-0.718.006-1.436,0.02,1.488,2.145,2.886,4.32,0,1.415,0,2.831,0.635,0,1.269.008Q73.027,87.8,73.043,86.387ZM85,89.223a1.9,1.9,0,0,0,.666-1.261,1.612,1.612,0,0,0-.294-1.169,1.99,1.99,0,0,0-1.056-.708l0.279-.094a2.348,2.348,0,0,0,.3-0.152,1.451,1.451,0,0,0,.694-1.19,1.779,1.779,0,0,0-.406-1.3,1.885,1.885,0,0,0-.8-0.549,4.543,4.543,0,0,0-1.342-.293q-1.511-.124-3.023-0.216-0.218,3.581-.436,7.162,1.612,0.1,3.223.234a2.914,2.914,0,0,0,2.2-.465h0ZM81.251,83.5q0.835,0.058,1.669.127a1.932,1.932,0,0,1,1.037.316,0.813,0.813,0,0,1,.273.764c-0.056.593-.546,0.844-1.473,0.767q-0.817-.067-1.635-0.124Q81.186,84.421,81.251,83.5Zm-0.209,2.969q0.917,0.064,1.833.141c1.075,0.09,1.581.461,1.519,1.092a0.838,0.838,0,0,1-.445.758,2.218,2.218,0,0,1-1.078.116q-0.983-.083-1.967-0.152Q80.973,87.442,81.042,86.465ZM91.89,89.122q0.249,0.865.488,1.729,0.659,0.1,1.318.215-1.011-3.81-2.2-7.606-0.7-.1-1.393-0.193-2.181,3.329-4.191,6.721,0.663,0.072,1.325.15,0.463-.767.936-1.532Q90.034,88.839,91.89,89.122ZM88.83,87.564Q89.7,86.185,90.6,84.817q0.49,1.56.951,3.123Q90.191,87.739,88.83,87.564ZM96.6,89.727a2.439,2.439,0,0,1-.426-1.937,2.276,2.276,0,0,1,1.107-1.622,2.819,2.819,0,0,1,2.071-.311,3.083,3.083,0,0,1,1.1.429,3.525,3.525,0,0,1,.877.892q0.5-.322,1-0.64A3.994,3.994,0,0,0,99.624,84.7a4.206,4.206,0,0,0-3.15.479A3.4,3.4,0,0,0,94.85,87.6a3.5,3.5,0,0,0,.648,2.8,4.047,4.047,0,0,0,2.553,1.556,3.9,3.9,0,0,0,3.074-.632q-0.309-.479-0.625-0.955a4.023,4.023,0,0,1-1.107.448,2.8,2.8,0,0,1-1.144-.022A2.588,2.588,0,0,1,96.6,89.727Zm5.752,3.1q0.608,0.144,1.216.3l0.486-1.95q0.672-.417,1.352-0.827,0.831,1.836,1.6,3.679,0.72,0.2,1.438.406-0.9-2.359-1.9-4.709,1.9-1.125,3.852-2.2-0.81-.233-1.622-0.457-2.2,1.211-4.325,2.489l0.846-3.4q-0.641-.159-1.282-0.312Z"/>
    <path id="Shape_6_copy" data-name="Shape 6 copy" class="cls-2" d="M29.286,90.839l-12,6.842h8.572v8.552s21.714-8.552,30.857-8.552L55,92.55S36.714,95.4,32.714,97.681Zm85.714,0,12,6.842h-8.572v8.552s-20-8.552-29.142-8.552L91,90.839s16.571,4.561,20.571,6.842Z"/>
    <text id="_100_" data-name="100%" class="cls-3" transform="translate(57.36 70.441) scale(1.714 1.71)">100%</text>
    <path id="Guarantee" class="cls-2" d="M38.618,113.141a3.633,3.633,0,0,1-2,.514,3,3,0,0,1-2.013-5.106,2.98,2.98,0,0,1,2.136-.822,3.789,3.789,0,0,1,1.16.161,2.915,2.915,0,0,1,.99.582l0.756-1.076a4.4,4.4,0,0,0-3.012-1.052,4.272,4.272,0,0,0-3.091,1.245,4.164,4.164,0,0,0-1.28,3.113,4.119,4.119,0,0,0,1.257,3.087,4.3,4.3,0,0,0,3.114,1.219,4.368,4.368,0,0,0,3.4-1.3v-2.859H38.618v2.3Zm4.582-1.964v-4.636H41.782v4.694a3.72,3.72,0,0,0,1,2.786,3.843,3.843,0,0,0,5.115,0,3.722,3.722,0,0,0,1-2.783v-4.694H47.472v4.636A2.7,2.7,0,0,1,46.895,113a2.153,2.153,0,0,1-3.12,0,2.706,2.706,0,0,1-.574-1.821h0Zm13.084,1.829,0.844,1.906H58.64l-3.7-8.371H53.431l-3.7,8.371h1.512l0.838-1.906h4.2Zm-3.621-1.3,1.523-3.45,1.523,3.45H52.663Zm13-4.517a4.531,4.531,0,0,0-2.748-.645H59.8v8.371h1.412V112.1h1.863l2,2.812h1.8l-2.2-3.04a2.436,2.436,0,0,0,1.811-2.613A2.471,2.471,0,0,0,65.665,107.186Zm-2.689,3.634H61.212v-2.993h1.8a2.967,2.967,0,0,1,1.582.3,1.268,1.268,0,0,1,.445,1.125,1.49,1.49,0,0,1-.434,1.193,2.605,2.605,0,0,1-1.635.371h0Zm10.939,2.186,0.844,1.906h1.512l-3.7-8.371H71.062l-3.7,8.371h1.512l0.838-1.906h4.2Zm-3.621-1.3,1.523-3.45,1.523,3.45H70.294ZM83.718,112.8l-4.875-6.255H77.431v8.371h1.412v-6.1l4.752,6.1H85.13v-8.371H83.718V112.8Zm9.457-4.958v-1.3h-6.51v1.3h2.549v7.074h1.412v-7.074h2.549Zm1.529-1.3v8.371h6.035v-1.327H96.116v-2.239h4.02v-1.257h-4.02v-2.216h4.477v-1.332H94.7Zm7.846,0v8.371h6.035v-1.327h-4.623v-2.239h4.02v-1.257h-4.02v-2.216h4.477v-1.332H102.55Z"/>
  </g>
</svg>
