<svg id="moneyback" xmlns="http://www.w3.org/2000/svg" width="69" height="69" viewBox="0 0 69 69">
  <defs>
    <style>
      .cls-1, .cls-2 {
        fill: #fff;
      }

      .cls-1 {
        fill-rule: evenodd;
      }

      .cls-2 {
        font-size: 6px;
        font-family: Montserrat;
      }
    </style>
  </defs>
  <path id="Polygon_2" data-name="Polygon 2" class="cls-1" d="M61,43l7,4H63v5s-11.667-5-17-5l0.506-2.022A66.41,66.41,0,0,0,35.333,44a59.153,59.153,0,0,0-9.094.719L27,47c-5.333,0-18,5-18,5V47H4l7-4,2,4a5.007,5.007,0,0,1,.576-0.27L11,39a85.377,85.377,0,0,1,9.516-2.436l0.126-.478-2.523-1.473,1.448-2.537L17.512,30l2.055-2.076-1.448-2.537,2.523-1.473L19.9,21.089l2.818-.77L22.731,17.4l2.921-.014,0.77-2.818,2.825,0.742,1.473-2.523,2.537,1.448,2.076-2.055,2.076,2.055,2.537-1.448,1.473,2.523,2.825-.742,0.77,2.818L47.935,17.4l0.014,2.921,2.818,0.77-0.742,2.825,2.523,1.473L51.1,27.924,53.155,30,51.1,32.076l1.448,2.537-2.523,1.473,0.106,0.405h0A107.067,107.067,0,0,1,61,39l-2.571,7.713c0.218,0.1.414,0.2,0.571,0.287Zm-18.779-.673a1.7,1.7,0,0,0,1.281-.272,1.112,1.112,0,0,0,.388-0.737,0.944,0.944,0,0,0-.171-0.684A1.161,1.161,0,0,0,43.1,40.22l0.162-.055a1.346,1.346,0,0,0,.175-0.089,0.849,0.849,0,0,0,.405-0.7,1.042,1.042,0,0,0-.237-0.76,1.1,1.1,0,0,0-.467-0.321,2.646,2.646,0,0,0-.783-0.171Q41.478,38.056,40.6,38L40.341,42.19Q41.282,42.247,42.221,42.327Zm-6.452-1.935q0,0.827,0,1.655,0.37,0,.74,0,0.009-.828.018-1.655,0.832-1.261,1.715-2.5-0.419-.013-0.837-0.023-0.641.942-1.252,1.893-0.6-.959-1.228-1.909-0.419,0-.837.012Q34.954,39.121,35.769,40.392ZM30.786,42.2q1.547-.1,3.1-0.132-0.008-.332-0.015-0.665-1.2.027-2.393,0.091l-0.06-1.121q1.055-.056,2.111-0.084l-0.017-.63q-1.064.028-2.127,0.085-0.03-.555-0.059-1.109,1.2-.064,2.4-0.093-0.008-.334-0.016-0.668-1.594.038-3.186,0.138Zm-5.133.494q0.36-.047.721-0.09l-0.366-3.037q1.445,1.367,2.8,2.783,0.393-.035.786-0.066L29.263,38.1q-0.381.03-.762,0.063l0.274,3.123q-1.4-1.45-2.9-2.849-0.38.046-.76,0.1Zm-7.181-3.017q-0.585.126-1.168,0.26-0.376,1.439-.707,2.88Q15.63,41.7,14.621,40.6q-0.581.155-1.16,0.318L14.6,44.958q0.352-.1.705-0.2L14.446,41.6q1.142,1.2,2.232,2.423l0.4-.1q0.393-1.594.843-3.187l0.719,3.2q0.357-.081.715-0.157Zm3.294-.739a2.391,2.391,0,0,0-1.566.918,1.974,1.974,0,0,0-.368,1.65,2.058,2.058,0,0,0,.957,1.387,2.51,2.51,0,0,0,3.219-.554,2.062,2.062,0,0,0,.435-1.627,1.978,1.978,0,0,0-.9-1.432A2.381,2.381,0,0,0,21.766,38.938ZM35,18.75a11.233,11.233,0,0,0-9.663,16.99A68.8,68.8,0,0,1,35,35a78.409,78.409,0,0,1,9.713.657A11.235,11.235,0,0,0,35,18.75ZM47.29,38.686q-0.406-.059-0.812-0.113Q45.2,40.519,44.032,42.5q0.386,0.042.773,0.088,0.27-.449.546-0.9,1.086,0.135,2.169.3,0.145,0.505.285,1.011,0.384,0.061.769,0.126Q47.984,40.906,47.29,38.686Zm4.741,0.724a2.449,2.449,0,0,0-1.838.28,1.99,1.99,0,0,0-.947,1.416,2.052,2.052,0,0,0,.378,1.638,2.36,2.36,0,0,0,1.489.909,2.269,2.269,0,0,0,1.793-.37q-0.181-.28-0.365-0.559a2.349,2.349,0,0,1-.646.262,1.631,1.631,0,0,1-.667-0.013,1.509,1.509,0,0,1-.959-0.626,1.429,1.429,0,0,1-.248-1.133,1.331,1.331,0,0,1,.646-0.948,1.642,1.642,0,0,1,1.208-.182,1.8,1.8,0,0,1,.641.25,2.058,2.058,0,0,1,.511.522q0.29-.188.582-0.374A2.33,2.33,0,0,0,52.031,39.41ZM57.375,40.8q-1.284.708-2.523,1.455l0.494-1.987q-0.374-.093-0.748-0.182l-0.973,4.081q0.355,0.084.71,0.173l0.283-1.14q0.392-.244.789-0.483,0.485,1.073.935,2.151,0.42,0.116.839,0.238-0.525-1.379-1.106-2.753,1.106-.657,2.247-1.284Q57.849,40.926,57.375,40.8Zm-10.61-1.316q0.286,0.912.555,1.826-0.792-.118-1.586-0.22Q46.241,40.279,46.765,39.479ZM22.39,42.573a1.526,1.526,0,0,1-1.159-.243,1.471,1.471,0,0,1-.645-0.974,1.428,1.428,0,0,1,.25-1.143,1.64,1.64,0,0,1,2.228-.383,1.428,1.428,0,0,1,.617.994,1.471,1.471,0,0,1-.281,1.133A1.524,1.524,0,0,1,22.39,42.573Zm19.87-2.048c0.627,0.053.922,0.27,0.886,0.639a0.49,0.49,0,0,1-.259.443,1.291,1.291,0,0,1-.629.068q-0.573-.049-1.147-0.089l0.08-1.143Q41.726,40.48,42.26,40.525Zm-0.069-.664q-0.477-.039-0.954-0.073l0.076-1.081q0.487,0.034.973,0.074a1.126,1.126,0,0,1,.6.184,0.476,0.476,0,0,1,.159.447C43.018,39.759,42.732,39.905,42.191,39.861Zm-26.9,12.2a2.566,2.566,0,0,1,1.757.615l-0.441.629a1.7,1.7,0,0,0-.578-0.34,2.205,2.205,0,0,0-.677-0.094,1.737,1.737,0,0,0-1.246.48,1.723,1.723,0,0,0,1.174,2.986,2.115,2.115,0,0,0,1.166-.3V54.7h0.827v1.671a2.544,2.544,0,0,1-1.982.762,2.5,2.5,0,0,1-1.817-.713,2.41,2.41,0,0,1-.733-1.8,2.437,2.437,0,0,1,.747-1.82A2.489,2.489,0,0,1,15.289,52.063Zm3.828,2.827a1.583,1.583,0,0,0,.335,1.065,1.254,1.254,0,0,0,1.82,0,1.578,1.578,0,0,0,.337-1.065V52.179h0.827v2.745a2.178,2.178,0,0,1-.581,1.627,2.238,2.238,0,0,1-2.984,0,2.177,2.177,0,0,1-.581-1.629V52.179h0.827V54.89Zm6.85-2.711,2.157,4.894H27.241L26.749,55.96H24.3L23.81,57.074H22.928l2.157-4.894h0.882ZM26.414,55.2l-0.889-2.017L24.637,55.2h1.777Zm5.807-2.64a1.446,1.446,0,0,1,.482,1.212A1.424,1.424,0,0,1,31.647,55.3l1.282,1.777H31.88L30.711,55.43H29.624v1.644H28.8V52.179h1.818A2.637,2.637,0,0,1,32.221,52.557Zm-2.6,2.124h1.029a1.518,1.518,0,0,0,.954-0.217,0.872,0.872,0,0,0,.253-0.7,0.743,0.743,0,0,0-.26-0.658,1.73,1.73,0,0,0-.923-0.178H29.624v1.75Zm6.627-2.5,2.157,4.894H37.526L37.034,55.96H34.583l-0.489,1.114H33.213l2.157-4.894h0.882ZM36.7,55.2L35.81,53.181,34.922,55.2H36.7Zm6.053,0.639V52.179h0.824v4.894h-0.9l-2.772-3.568v3.568H39.085V52.179h0.824Zm5.517-2.9H46.782v4.136H45.958V52.938H44.471V52.179h3.8v0.759ZM52.6,52.959H49.985v1.3h2.345v0.735H49.985V56.3h2.7v0.776h-3.52V52.179H52.6v0.779Zm4.577,0H54.561v1.3h2.345v0.735H54.561V56.3h2.7v0.776H53.738V52.179h3.435v0.779Z"/>
  <text id="_100_" data-name="100%" class="cls-2" x="27.377" y="31.074">100%</text>
</svg>
