<svg id="no_broker" data-name="no broker" xmlns="http://www.w3.org/2000/svg" width="145" height="154" viewBox="0 0 145 154">
  <defs>
    <style>
      .cls-1 {
        fill: none;
      }

      .cls-1, .cls-2, .cls-3, .cls-4 {
        stroke: #011111;
        stroke-width: 1px;
      }

      .cls-1, .cls-3, .cls-4, .cls-5 {
        fill-rule: evenodd;
      }

      .cls-2, .cls-3, .cls-5 {
        fill: #011111;
      }

      .cls-4 {
        fill: #111;
      }
    </style>
  </defs>
  <path class="cls-1" d="M51.5,32C64.479,32,75,39.76,75,55.5S70.584,89,51.5,89C33.593,89,28,71.24,28,55.5S38.521,32,51.5,32Z"/>
  <circle class="cls-2" cx="61.5" cy="63.5" r="1.5"/>
  <circle id="Ellipse_3_copy" data-name="Ellipse 3 copy" class="cls-2" cx="43.5" cy="63.5" r="1.5"/>
  <path id="Ellipse_3_copy_2" data-name="Ellipse 3 copy 2" class="cls-3" d="M44.825,74C43.751,73.219,43,72.394,43,71.667c1.03,0.653,5.685,4.326,9-.667,3.888,5.429,7.741,1.206,9,.667,0,0.727-.751,1.552-1.825,2.333a6.321,6.321,0,0,1-3.349,1c-1.1,0-2.378-1-3.66-1-1.338,0-2.683,1-3.85,1A6.821,6.821,0,0,1,44.825,74Zm12.763,1A15.281,15.281,0,0,1,52,77a15.282,15.282,0,0,1-5.587-2H57.587Z"/>
  <path class="cls-3" d="M59,24s-0.67,7.826-23,20c0,0,18.873-4.355,28-18"/>
  <path class="cls-4" d="M48,33S33.644,43.07,28,56V36c0-9.465,6.221-15.138,21-15,19.758,0.185,26,3.02,26,12,0,7.261-.009,16,0,22C71.173,54.654,48.626,39.886,48,33Z"/>
  <path id="Rounded_Rectangle_711" data-name="Rounded Rectangle 711" class="cls-4" d="M71.8,129H71V118.5a0.5,0.5,0,0,0-1,0V129H33V118.5a0.5,0.5,0,1,0-1,0v10.49a7.2,7.2,0,0,1-7-7.19V110c0-14.912,12.088-19,27-19s27,4.089,27,19v11.8A7.2,7.2,0,0,1,71.8,129Z"/>
  <path id="Rounded_Rectangle_713_copy" data-name="Rounded Rectangle 713 copy" class="cls-5" d="M120.811,56.184a0.636,0.636,0,0,1,0,.889L82.055,96.507a0.611,0.611,0,0,1-.874,0,0.637,0.637,0,0,1,0-.889l38.757-39.433A0.61,0.61,0,0,1,120.811,56.184Zm-38.756.3,38.756,39.433a0.636,0.636,0,0,1,0,.889,0.61,0.61,0,0,1-.874,0L81.181,57.37a0.637,0.637,0,0,1,0-.889A0.611,0.611,0,0,1,82.055,56.48Z"/>
</svg>
