<svg id="assistence_icon" data-name="assistence icon" xmlns="http://www.w3.org/2000/svg" width="69" height="69" viewBox="0 0 69 69">
  <defs>
    <style>
      .cls-1, .cls-2 {
        fill: #fff;
        fill-rule: evenodd;
      }

      .cls-1 {
        opacity: 0;
      }
    </style>
  </defs>
  <path id="Rectangle_13_copy_2" data-name="Rectangle 13 copy 2" class="cls-1" d="M-4,0h2V35H-4V0Zm1,0H32V2H-3V0Z"/>
  <path id="Rectangle_14_copy" data-name="Rectangle 14 copy" class="cls-2" d="M20,25l15.1,9.4V54.6L20.7,47.4Zm31.1,0.8L35.9,34.4V54.6l13.6-8ZM35.1,14l18.4,9.4-0.8.8L35.1,14.8,18.3,24.2l-0.8-.8Zm5.816,12.2-1.048.282,0.1,0.787-1.114.081-0.191.779L37.559,28l-0.47.719L36.067,28.4l-0.717.609-0.867-.5-0.915.458-0.655-.64-1.051.275-0.4-.738-1.116.074-0.112-.786-1.1-.132,0.18-.781L28.3,25.907l0.46-.722-0.86-.5,0.709-.614-0.646-.645,0.909-.464-0.387-.741,1.047-.282-0.1-.787,1.114-.082,0.191-.779,1.106,0.125,0.47-.719,1.021,0.323,0.717-.609,0.867,0.5,0.916-.457,0.654,0.64,1.051-.275,0.4,0.739,1.115-.074,0.112,0.786,1.1,0.132-0.18.781,1.017,0.33-0.46.722,0.86,0.5-0.709.614,0.645,0.645-0.909.464Zm11.784-2L50.3,47.4,35.9,56.2l-16.8-8-0.8-24-0.8-.8L18.3,49l17.6,8,15.2-8.8,2.4-24.8ZM37.118,26.439l-2.241-.169-2.215.325-0.493-1.77-1.068-1.6,1.937-.925,1.555-1.312,1.69,1.2,2.029,0.786-0.892,1.665ZM20,30l15,9v2L20,32V30Zm31,0L36,39v2l15-9V30Z"/>
</svg>
