<svg id="pay_less" data-name="pay less" xmlns="http://www.w3.org/2000/svg" width="145" height="154" viewBox="0 0 145 154">
  <defs>
    <style>
      .cls-1, .cls-2 {
        fill: #111;
      }

      .cls-1 {
        fill-rule: evenodd;
      }
    </style>
  </defs>
  <g id="Group_51_copy_2" data-name="Group 51 copy 2">
    <path class="cls-1" d="M40.214,54.006a37.12,37.12,0,0,0,9.2-5.7c4.5-3.828,24.067,1.394,32.218,6.858C86.993,58.761,91.984,62,91.984,62s0.228,3.958-3.45,3.418-8.473-4.339-10.351-4.557-22.075-5.25-21.867-3.44a5.451,5.451,0,0,1,0,2.279s9.52,1.4,12.651,2.279,4.848,1.88,4.6,4.557-9.643-.4-13.8,1.139S51.734,70.7,44.814,69.957s-5.751-2.279-5.751-2.279Z"/>
    <path class="cls-1" d="M36.76,69.957l2.3-18.229-6.912-2.279L31,68.818Z"/>
  </g>
  <g id="Group_51_copy_3" data-name="Group 51 copy 3">
    <path class="cls-1" d="M104.781,100.041a37.2,37.2,0,0,0-9.205,5.657c-4.505,3.8-24.08-1.384-32.235-6.811-5.363-3.569-10.356-6.79-10.356-6.79s-0.228-3.931,3.452-3.395,8.477,4.31,10.356,4.526,22.087,5.214,21.879,3.417a5.379,5.379,0,0,1,0-2.263S79.146,93,76.014,92.119s-4.851-1.867-4.6-4.526,9.648,0.4,13.809-1.132,8.036-3,14.959-2.264,5.754,2.264,5.754,2.264Z"/>
    <path class="cls-1" d="M108.237,84.2l-2.3,18.106,6.915,2.263L114,85.329Z"/>
  </g>
  <circle id="Ellipse_4_copy_3" data-name="Ellipse 4 copy 3" class="cls-2" cx="79.313" cy="69.016" r="4.625"/>
  <path id="Ellipse_4_copy_4" data-name="Ellipse 4 copy 4" class="cls-1" d="M82.859,76.375c2.528,0,4.578,1.035,4.578,2.313S85.388,81,82.859,81s-4.578-1.035-4.578-2.312S80.331,76.375,82.859,76.375Z"/>
</svg>
