<svg id="payless" xmlns="http://www.w3.org/2000/svg" width="69" height="69" viewBox="0 0 69 69">
  <defs>
    <style>
      .cls-1, .cls-2, .cls-3 {
        fill: #fff;
      }

      .cls-1, .cls-3 {
        fill-rule: evenodd;
      }

      .cls-2, .cls-3 {
        stroke: #fff;
        stroke-width: 1px;
      }
    </style>
  </defs>
  <g id="Group_51_copy" data-name="Group 51 copy">
    <path class="cls-1" d="M15.036,51.459a24.326,24.326,0,0,1,6.017,3.692c2.945,2.481,15.739-.9,21.07-4.444,3.505-2.328,6.769-4.43,6.769-4.43s0.149-2.565-2.256-2.215-5.541,2.812-6.769,2.953-14.436,3.4-14.3,2.229a3.5,3.5,0,0,0,0-1.477s6.226-.905,8.274-1.477,3.17-1.218,3.008-2.953-6.306.258-9.026-.738a18.913,18.913,0,0,0-9.778-1.477c-4.525.48-3.761,1.477-3.761,1.477ZM12.777,41.122l1.507,11.814-4.52,1.477L9.01,41.86Z"/>
  </g>
  <g id="Group_51_copy_2" data-name="Group 51 copy 2">
    <path class="cls-1" d="M55.908,22.534a24.664,24.664,0,0,1-6.084-3.686c-2.977-2.477-15.913.9-21.3,4.438-3.544,2.325-6.844,4.423-6.844,4.423s-0.151,2.561,2.281,2.211,5.6-2.808,6.844-2.949,14.6-3.4,14.459-2.226a3.457,3.457,0,0,0,0,1.474s-6.295.9-8.365,1.474-3.206,1.216-3.042,2.949,6.376-.258,9.126.737a19.338,19.338,0,0,0,9.886,1.474c4.575-.479,3.8-1.474,3.8-1.474Z"/>
    <path class="cls-1" d="M58.191,32.855l-1.523-11.8,4.57-1.474L62,32.117Z"/>
  </g>
  <circle id="Ellipse_4_copy_3" data-name="Ellipse 4 copy 3" class="cls-2" cx="30.047" cy="32.25" r="3.047"/>
  <path id="Ellipse_4_copy_4" data-name="Ellipse 4 copy 4" class="cls-3" d="M27.717,37c1.671,0,3.025.672,3.025,1.5S29.388,40,27.717,40s-3.025-.672-3.025-1.5S26.046,37,27.717,37Z"/>
  <circle id="Ellipse_4_copy_5" data-name="Ellipse 4 copy 5" class="cls-2" cx="40.625" cy="43.25" r="3"/>
</svg>
