<svg id="refer_a_friends" data-name="refer a friends" xmlns="http://www.w3.org/2000/svg" width="145" height="154" viewBox="0 0 145 154">
  <defs>
    <style>
      .cls-1 {
        font-size: 22px;
        font-family: FontAwesome;
      }

      .cls-1, .cls-2 {
        fill: #111;
      }

      .cls-2 {
        fill-rule: evenodd;
      }
    </style>
  </defs>
  <text id="_" data-name="" class="cls-1" transform="translate(69.677 61.492) scale(0.696 0.693)"></text>
  <path id="Rounded_Rectangle_11" data-name="Rounded Rectangle 11" class="cls-2" d="M51.177,48c6.939,0,12.565-15.344,12.565,12.523,0,5.261-3.255,15.036-7.867,16.891a12.648,12.648,0,0,1-9.546-.062c-4.532-1.891-7.716-11.626-7.716-16.829A12.544,12.544,0,0,1,51.177,48ZM45.226,79.636s3.2,2.075,4.081,4.489c1.227,3.359.442,7.375,2.325,7.375,1.955,0,1.288-3.981,2.607-7.331,0.958-2.433,4.213-4.533,4.213-4.533,3.853,9.293,23.226,5.9,23.226,13.182L75.992,113.4a2.4,2.4,0,0,1-2.127,2.6H30.127A2.4,2.4,0,0,1,28,113.4L22,92.818C22,85.538,42.435,88.929,45.226,79.636Z"/>
  <path id="Rounded_Rectangle_11_copy" data-name="Rounded Rectangle 11 copy" class="cls-2" d="M100.333,38a8.459,8.459,0,0,1,8.377,8.538c0,3.587-2.17,10.252-5.245,11.517a8.259,8.259,0,0,1-6.364-.042c-3.021-1.289-5.144-7.927-5.144-11.475C91.957,34.127,95.707,38,100.333,38ZM96.366,59.57a7.934,7.934,0,0,1,2.721,3.061c0.818,2.29.295,5.028,1.55,5.028,1.3,0,.859-2.714,1.738-5a8.387,8.387,0,0,1,2.809-3.09C107.716,64.827,124,63.594,124,68.558L117,82.21a1.6,1.6,0,0,1-1.215,1.8H86.205a1.6,1.6,0,0,1-1.215-1.8L77.548,68.558C77.548,63.594,93.248,65.7,96.366,59.57Z"/>
</svg>
