<svg xmlns="http://www.w3.org/2000/svg" width="79" height="40" viewBox="0 0 79 40">
  <defs>
    <style>
      .cls-1 {
        fill: none;
      }

      .cls-1, .cls-2 {
        stroke: #fff;
        stroke-width: 1px;
      }

      .cls-1, .cls-2, .cls-3 {
        fill-rule: evenodd;
      }

      .cls-2, .cls-3 {
        fill: #fff;
      }
    </style>
  </defs>
  <path id="Rounded_Rectangle_11" data-name="Rounded Rectangle 11" class="cls-1" d="M59.5,1c3.264,0.058,5.829,3.029,7.314,4.159C68.459,4.518,70.015,3.9,68,8.5c-1.031,4.572-1.461,11.407-4.948,12.814a9.533,9.533,0,0,1-7.218-.047C52.407,19.832,51,12.447,51,8.5,51,3.253,54.422,1.03,59.5,1Z"/>
  <path id="Rounded_Rectangle_11_copy" data-name="Rounded Rectangle 11 copy" class="cls-1" d="M19.5,1C26.864-2.071,28,3.253,28,8.5c0,3.991-1.461,11.407-4.948,12.814a9.533,9.533,0,0,1-7.218-.047C12.407,19.832,11,12.447,11,8.5,11,3.253,14.4-.8,19.5,1Z"/>
  <path class="cls-1" d="M49,23a12.062,12.062,0,0,0,11,7c8.085-.042,9-8,9-8s10.488,1.748,10,11c-0.175,3.324,0,7,0,7H39V32S39.9,23.239,49,23Zm-8,1,3,7h4a13.064,13.064,0,0,0,1-4.632A18.27,18.27,0,0,0,48,21H44Z"/>
  <path id="Shape_1_copy" data-name="Shape 1 copy" class="cls-2" d="M10,23s1.666,5.026,5.974,6.971C17.363,30.6,18.028,29.01,20,29c1.27-.007,3.364,1.791,4.3,1.456C29.35,28.654,30,22,30,22s13.128,0.042,13,3c-0.057,1.311-3.069,3.143-3.062,4.882C39.947,32.552,40,32,40,32l-5.019,1.528L33.422,40H0V33S0.9,23.239,10,23Z"/>
  <path id="Shape_3_copy" data-name="Shape 3 copy" class="cls-3" d="M11,22l2-1,7,5-3,3Zm18,0-2-1-7,5,3,3Z"/>
  <path id="Shape_3_copy_2" data-name="Shape 3 copy 2" class="cls-3" d="M50,22l2-1,7,5-3,3Zm18,0-2-1-7,5,3,3Z"/>
  <path class="cls-1" d="M41,24l3,7h4a13.064,13.064,0,0,0,1-4.632A18.27,18.27,0,0,0,48,21H44Z"/>
</svg>
