<svg xmlns="http://www.w3.org/2000/svg" width="104" height="57" viewBox="0 0 104 57">
  <defs>
    <style>
      .cls-1, .cls-2 {
        fill: none;
        stroke: #fff;
        stroke-width: 1px;
      }

      .cls-1, .cls-3 {
        fill-rule: evenodd;
      }

      .cls-3 {
        fill: #fff;
      }
    </style>
  </defs>
  <path id="Rounded_Rectangle_11" data-name="Rounded Rectangle 11" class="cls-1" d="M22.5,18c2.312-4.927,9.2,3.33,8.5,7.5-1.03,4.572-1.461,11.407-4.948,12.814a9.532,9.532,0,0,1-7.218-.047C15.407,36.832,14,29.447,14,25.5,14,20.253,17.961,19.289,22.5,18Z"/>
  <path class="cls-1" d="M12,40a12.062,12.062,0,0,0,11,7c8.085-.042,9-8,9-8s2.176-1.317,12,4c4.546,2.461,11.023.268,15.051-.487C61.835,41.991,69.226,37.939,69,39c-0.814,3.82-6.245,8.257-11,10a29.845,29.845,0,0,1-12.44,1.671C39.2,49.921,40.615,49.546,40,51a33.387,33.387,0,0,0-1,6H0l2-8S2.9,40.239,12,40Z"/>
  <path class="cls-1" d="M63,20V11h41V54H89"/>
  <rect class="cls-2" x="61" y="24" width="24" height="7"/>
  <path id="Shape_7_copy_2" data-name="Shape 7 copy 2" class="cls-1" d="M100,16V40H93V16h7Z"/>
  <path class="cls-1" d="M94,11V5"/>
  <path class="cls-1" d="M89,8s8,1.277,8-8Z"/>
  <path class="cls-1" d="M93,5L91,3"/>
  <rect id="Shape_7_copy" data-name="Shape 7 copy" class="cls-2" x="66" y="40" width="14" height="14"/>
  <path class="cls-1" d="M57,20V54H89V20M54,43h3s9.307-2.493,11-4c1.638,1.522-6,7-6,7l-8,3V43Z"/>
  <path id="Shape_3_copy_2" data-name="Shape 3 copy 2" class="cls-3" d="M13,39l2-1,7,5-3,3Zm18,0-2-1-7,5,3,3Z"/>
</svg>
