<svg id="refer_subscription" data-name="refer subscription" xmlns="http://www.w3.org/2000/svg" width="145" height="154" viewBox="0 0 145 154">
  <defs>
    <style>
      .cls-1 {
        font-size: 16px;
        fill: #011111;
        text-anchor: middle;
        font-family: FontAwesome;
      }

      .cls-2 {
        fill: #111;
        fill-rule: evenodd;
      }
    </style>
  </defs>
  <text id="_" data-name="" class="cls-1" transform="translate(70.259 49.056) scale(1.608 1.602)"><tspan x="0"></tspan></text>
  <path id="Rectangle_14_copy" data-name="Rectangle 14 copy" class="cls-2" d="M44.514,67.4l27.264,16.87v36.253l-26-12.922Zm56.153,1.436L73.222,84.273v36.253l24.556-14.357ZM71.778,47.661L105,64.531l-1.445,1.436L71.778,49.1,41.444,65.967,40,64.531Zm10.5,21.89-1.891.506L80.57,71.47l-2.012.146-0.345,1.4-2-.224-0.849,1.29L73.524,73.5l-1.295,1.092L70.663,73.7l-1.653.821-1.182-1.149-1.9.493L65.214,72.54l-2.014.132L63,71.261,61,71.023l0.325-1.4-1.836-.591,0.831-1.3-1.554-.905,1.28-1.1-1.165-1.157,1.641-.832-0.7-1.33L61.72,61.9l-0.183-1.413,2.012-.146,0.345-1.4,2,0.224,0.849-1.289,1.844,0.579,1.3-1.093,1.566,0.895,1.653-.821,1.182,1.149,1.9-.493,0.717,1.325,2.014-.132,0.2,1.411L81.1,60.937l-0.325,1.4,1.836,0.592-0.831,1.3,1.554,0.9-1.28,1.1,1.165,1.157-1.641.832Zm21.276-3.584L99.222,107.6l-27,16.383L42.889,109.04,41.444,65.967,40,64.531l1.444,45.945,30.778,15.358,28.445-16.794L105,64.531ZM75.421,69.986l-4.047-.3-4,.583-0.89-3.176-1.928-2.866,3.5-1.659,2.807-2.354,3.051,2.151,3.663,1.411-1.611,2.989Zm-30.907,6.39L71.6,92.529v3.59L44.514,79.966v-3.59Zm55.972,0L73.4,92.529v3.59l27.083-16.152v-3.59Z"/>
</svg>
