<svg id="assistence_icon" data-name="assistence icon" xmlns="http://www.w3.org/2000/svg" width="69" height="69" viewBox="0 0 69 69">
  <defs>
    <style>
      .cls-1, .cls-2 {
        fill: #fff;
        fill-rule: evenodd;
      }

      .cls-1 {
        opacity: 0;
      }
    </style>
  </defs>
  <path id="Rectangle_13_copy_2" data-name="Rectangle 13 copy 2" class="cls-1" d="M-3,0h2V35H-3V0Zm1,0H33V2H-2V0Z"/>
  <path id="Ellipse_4_copy_2" data-name="Ellipse 4 copy 2" class="cls-2" d="M34,56s-7.021-1.586-13.383-8.918C15.347,41.007,15,30.12,15,19.615c7.9,0.1,10.918-1.775,19-6.615,8.082,4.841,11.33,6.967,19,6.615C53,29.733,53,40.38,47.963,46.4,41.456,54.176,34,56,34,56Zm8.535-12.311-7.753-.867L27.072,44l-1.536-7.344L21.989,29.98l6.8-3.671,5.517-5.3,5.741,5.075,6.956,3.4L43.753,36.29Z"/>
  <path id="_" data-name="" class="cls-2" d="M40.936,31.21l-1.062-1.062a0.754,0.754,0,0,0-1.062,0L33.686,35.28l-2.3-2.3a0.755,0.755,0,0,0-1.062,0l-1.062,1.063a0.754,0.754,0,0,0,0,1.062l2.828,2.828,1.063,1.063a0.755,0.755,0,0,0,1.063,0l1.063-1.062,5.656-5.656a0.754,0.754,0,0,0,0-1.062h0Z"/>
</svg>
