<svg id="age_of_house" data-name="age of house" xmlns="http://www.w3.org/2000/svg" width="800" height="800" viewBox="0 0 800 800">
  <defs>
    <style>
      .cls-1 {
        fill: #111;
        fill-rule: evenodd;
      }
    </style>
  </defs>
  <path class="cls-1" d="M100,626V610h42V368h16V610H342V495h76V610h34V495H618V610h24V448h16V610h42v16H100ZM402,511H358v99h44V511Zm200,0H468v99H602V511Zm59-77.437L480,406V390l22,3.35V366l16,2v27.787l49,7.462V307.965a41.5,41.5,0,0,1-39.754-36.971,26.494,26.494,0,0,1-.74-52.969A41.494,41.494,0,0,1,589,189.01,26.5,26.5,0,0,1,628.7,221.3a26.5,26.5,0,1,1-18.913,49.438A41.527,41.527,0,0,1,578,306.9v98.022L677,420v30l-16-2V433.563ZM518,233a12,12,0,1,0,12,12A12,12,0,0,0,518,233Zm62,38a24.9,24.9,0,0,0,19.092-8.888,26.373,26.373,0,0,1-3.619-24.268A10.486,10.486,0,0,0,604.5,243c0.059,0,.116-0.008.175-0.009a16.421,16.421,0,0,0-.456,3.821,16.594,16.594,0,1,0,17.9-16.527,26.477,26.477,0,0,1-7.419,4.652,10.5,10.5,0,1,0-20.4.021,26.5,26.5,0,0,1-14.8-33.25,25.952,25.952,0,0,0-36.073,31.728,41.284,41.284,0,0,1,22.94-8.376A24.99,24.99,0,0,0,580,271ZM232,568V495h76v73H292v-7H248v7H232Zm60-23V511H248v34h44ZM222,401V385h10v-7h16v7H402v-7h16v7h10v16H418v34h10v16H418v7H402v-7H248v7H232v-7H222V435h10V401H222Zm26,34H402V401H248v34ZM348.153,305.189L537,340v30l-16-2V353.051L320,316,136,352.8V368l-16,2V340l169.233-33.847A74.546,74.546,0,0,1,271.9,289.127c-16.271-22.089-19.9-51.463-19.9-72.45C292.885,201.238,318,174,318,174s34.46,28.408,66,42.677c0,21.08-3.71,50.632-20.114,72.743A74.74,74.74,0,0,1,348.153,305.189Zm-29.145-121.18s-22.451,25.191-59,39.469c0,19.409,3.241,38.254,17.786,58.681,10.74,15.084,26.131,24.853,41.212,24.853,14.99,0,30.3-9.639,41.018-24.582,14.664-20.448,17.98-39.457,17.98-58.952C349.812,210.281,319.008,184.009,319.008,184.009ZM318,287a39,39,0,1,1,39-39A39,39,0,0,1,318,287Zm0-71.5A32.5,32.5,0,1,0,350.5,248,32.5,32.5,0,0,0,318,215.5Zm-2.906,39.791A4.487,4.487,0,0,1,313,251.5v-27a4.5,4.5,0,0,1,9,0v21.957l15.138-4.065c1.915-.514,3.99,1.015,4.634,3.415s-0.385,4.763-2.3,5.277l-20.8,5.586A3.536,3.536,0,0,1,315.094,255.291Z"/>
</svg>
