<svg id="area_sqft" data-name="area sqft" xmlns="http://www.w3.org/2000/svg" width="800" height="800" viewBox="0 0 800 800">
  <defs>
    <style>
      .cls-1 {
        fill: #111;
        fill-rule: evenodd;
      }
    </style>
  </defs>
  <path id="Rectangle_2_copy_2" data-name="Rectangle 2 copy 2" class="cls-1" d="M677,180.259V619.741A42.5,42.5,0,1,1,619.741,677H180.259A42.5,42.5,0,1,1,123,619.741V180.259A42.5,42.5,0,1,1,180.259,123H619.741A42.5,42.5,0,1,1,677,180.259ZM619.741,162H180.253A42.7,42.7,0,0,1,162,180.259V619.741A42.676,42.676,0,0,1,180.259,638H619.741A42.676,42.676,0,0,1,638,619.741V180.259A42.676,42.676,0,0,1,619.741,162ZM614,565v49H565ZM485,614L614,485v55.916L540.722,614H485Zm-80,0L614,405v55.944L460.675,614H405Zm-80,0L614,325v56L381,614H325Zm-80,0L614,245v55.966L300.633,614H245Zm-59,0V589L591,184h23v33L217,614H186Zm0-104.963L511.383,184H567L186,565V509.037ZM186,429L431,184h56L186,485V429Zm0-79.939L351.351,184H407L186,405V349.061Zm0-79.969L271.317,184H327L186,325V269.092Zm0-79.894,5.212-5.2H247l-61,61V189.2Z"/>
</svg>
