<svg id="bathroom" xmlns="http://www.w3.org/2000/svg" width="800" height="800" viewBox="0 0 800 800">
  <defs>
    <style>
      .cls-1 {
        fill: #111;
        fill-rule: evenodd;
      }
    </style>
  </defs>
  <path id="Rounded_Rectangle_3_copy_2" data-name="Rounded Rectangle 3 copy 2" class="cls-1" d="M674,442.3V263a48,48,0,0,0-96,0v7H552V258a74,74,0,0,1,148,0V386A73.815,73.815,0,0,1,674,442.3ZM554.145,284.184A3.5,3.5,0,1,1,551.5,280,3.5,3.5,0,0,1,554.145,284.184Zm-5.5,8.5a3.5,3.5,0,1,1-4.184,2.644A3.5,3.5,0,0,1,548.641,292.682Zm-3.079,13.657a3.5,3.5,0,1,1-4.184,2.645A3.5,3.5,0,0,1,545.562,306.339Zm-1.094,20.768a3.5,3.5,0,1,1-2.644-4.184A3.5,3.5,0,0,1,544.468,327.107ZM564.5,331a3.5,3.5,0,1,1,3.5-3.5A3.5,3.5,0,0,1,564.5,331Zm0-17a3.5,3.5,0,1,1,3.5-3.5A3.5,3.5,0,0,1,564.5,314Zm0-27a3.5,3.5,0,1,1,3.5-3.5A3.5,3.5,0,0,1,564.5,287Zm0,13a3.5,3.5,0,1,1,3.5-3.5A3.5,3.5,0,0,1,564.5,300Zm29.39,25.718a3.505,3.505,0,0,1-2.689,4.19,3.561,3.561,0,0,1-4.255-2.648,3.505,3.505,0,0,1,2.689-4.19A3.562,3.562,0,0,1,593.89,325.718Zm-3.8-16.6A3.5,3.5,0,0,1,587.4,313.3a3.56,3.56,0,0,1-4.254-2.648,3.5,3.5,0,0,1,2.689-4.189A3.56,3.56,0,0,1,590.088,309.114Zm-8.726-22.183a3.56,3.56,0,0,1-4.255-2.648,3.5,3.5,0,0,1,2.689-4.189,3.561,3.561,0,0,1,4.255,2.648A3.5,3.5,0,0,1,581.362,286.931Zm5.6,8.508a3.505,3.505,0,0,1-2.689,4.19,3.561,3.561,0,0,1-4.255-2.648,3.505,3.505,0,0,1,2.689-4.19A3.562,3.562,0,0,1,586.958,295.439ZM670,372H115a15,15,0,0,1,0-30H670v30ZM118,382H662a8,8,0,0,1,8,8v56A120,120,0,0,1,550,566H230A120,120,0,0,1,110,446V390A8,8,0,0,1,118,382ZM221.112,572h38.776A2.112,2.112,0,0,1,262,574.112v26.049A15.84,15.84,0,0,1,246.161,616,27.16,27.16,0,0,1,219,588.839V574.112A2.112,2.112,0,0,1,221.112,572Zm300,0h38.776A2.112,2.112,0,0,1,562,574.112v14.727A27.16,27.16,0,0,1,534.839,616,15.839,15.839,0,0,1,519,600.161V574.112A2.112,2.112,0,0,1,521.112,572Z"/>
</svg>
