<svg id="bath_room_type" data-name="bath room type" xmlns="http://www.w3.org/2000/svg" width="800" height="800" viewBox="0 0 800 800">
  <defs>
    <style>
      .cls-1 {
        fill: #111;
        fill-rule: evenodd;
      }
    </style>
  </defs>
  <path id="Ellipse_2_copy_2" data-name="Ellipse 2 copy 2" class="cls-1" d="M536,283.073H506.915c-2.626-73.073-32.556-107.1-109.3-107.1S290.951,210,288.324,283.073H264a8,8,0,0,1-8-8V109a8,8,0,0,1,8-8H536a8,8,0,0,1,8,8V275.073A8,8,0,0,1,536,283.073Zm-8.661-149.7a5,5,0,0,0-5-5H490.686a5.054,5.054,0,0,0-.991.1,13.227,13.227,0,0,0-1.538-.1h-4.942a13,13,0,0,0-13,13v4.941a13,13,0,0,0,13,13h4.942a13,13,0,0,0,13-13V141.37c0-.371-0.025-0.736-0.056-1.1h21.238a5,5,0,0,0,5-5v-1.9Zm-222.546,162.2c0-68.68,24.738-100.557,93.422-100.557s93.421,31.877,93.421,100.557S466.9,419.925,398.215,419.925,304.793,364.249,304.793,295.568ZM495.728,483.591c0,27.932-44.42,38.676-99.214,38.676S297.3,511.523,297.3,483.591s44.419-50.576,99.213-50.576S495.728,455.659,495.728,483.591Zm-99.893,50.576c54.873,0,100.75-10.636,112.127-34.358a71.46,71.46,0,0,1,2.716,19.483c0,31.478-20.7,78.323-52.019,108.376a53.007,53.007,0,0,1,17.506,38.6,27.827,27.827,0,0,1-2.374,10.672c-8.694-1.453-40.3,23.08-77.956,23.08s-69.263-24.533-77.956-23.08a27.829,27.829,0,0,1-2.375-10.672,53.011,53.011,0,0,1,17.506-38.6c-31.322-30.053-52.018-76.9-52.018-108.376a71.46,71.46,0,0,1,2.716-19.483C295.085,523.531,340.961,534.167,395.835,534.167Z"/>
</svg>
