<svg id="bedroom" xmlns="http://www.w3.org/2000/svg" width="800" height="800" viewBox="0 0 800 800">
  <defs>
    <style>
      .cls-1 {
        fill: #111;
        fill-rule: evenodd;
      }
    </style>
  </defs>
  <path id="Rounded_Rectangle_1" data-name="Rounded Rectangle 1" class="cls-1" d="M636,521a5,5,0,0,1,0-10h20a5,5,0,0,1,0,10H636Zm62,42H615v24.857A17.143,17.143,0,0,1,597.857,605,6.857,6.857,0,0,1,591,598.143V483H571V459H698v24H615v56h83v24ZM612,417.5a1.5,1.5,0,1,1,1.5,1.5A1.5,1.5,0,0,1,612,417.5ZM640,399v50h-8V399h8Zm21,57H611v-5h50v5Zm-46-43.5a1.5,1.5,0,0,1-3,0V397H592l42-50h5l42,50H615v15.5ZM553,640H519v18a3,3,0,0,1-3,3H491a3,3,0,0,1-3-3V640H169v18a3,3,0,0,1-3,3H141a3,3,0,0,1-3-3V640H106a6,6,0,0,1-6-6V525a6,6,0,0,1,6-6H553a6,6,0,0,1,6,6V634A6,6,0,0,1,553,640Zm-24-46a8,8,0,0,0-8-8H134a8,8,0,0,0-8,8v11a8,8,0,0,0,8,8H521a8,8,0,0,0,8-8V594Zm14-144H477V439a27,27,0,0,0-27-27H371a27,27,0,0,0-27,27v11H317V439a27,27,0,0,0-27-27H211a27,27,0,0,0-27,27v11H116a6,6,0,0,1-6-6V349a60,60,0,0,1,60-60H489a60,60,0,0,1,60,60v95A6,6,0,0,1,543,450ZM319,129h71.259a11.048,11.048,0,0,1,1.139-14.67,11.885,11.885,0,0,1,16.457,0l0.715,0.7A11.05,11.05,0,0,1,410.2,129H479V241H319V129Zm88.336-11-2.54-2.466a7.467,7.467,0,0,0-10.339,0,9.406,9.406,0,0,0,0,13.581l5.885,5.714,6.994-6.791A6.953,6.953,0,0,0,407.336,118ZM329,231H469V139H329v92Z"/>
</svg>
