<svg id="two_wheeler_parking" data-name="two wheeler parking" xmlns="http://www.w3.org/2000/svg" width="800" height="800" viewBox="0 0 800 800">
  <defs>
    <style>
      .cls-1 {
        fill: #111;
        fill-rule: evenodd;
      }
    </style>
  </defs>
  <path class="cls-1" d="M585.944,239.4V700H570.4V239.541A69.458,69.458,0,1,1,585.944,239.4ZM577.618,117.67a52.788,52.788,0,1,0,52.73,52.787A52.759,52.759,0,0,0,577.618,117.67Zm26.033,61.96q-7.273,5.778-22.347,5.778H569.188v20.056h-11.5V137.083h23.421q15.55,0,22.681,5.969t7.132,18.385Q610.926,173.853,603.651,179.63ZM594.708,150.5q-4.389-2.912-13.786-2.913H569.188V174.95h13.4q9.588,0,13.046-3.677t3.458-10.768Q599.1,153.414,594.708,150.5ZM438.519,325.486h-33.6a8.881,8.881,0,0,1-8.8,7.779h-58.47a41.063,41.063,0,0,1-80.661,0H200.735a8.88,8.88,0,0,1-8.8-7.779H155a2,2,0,0,1-2-2v-8.224a2,2,0,0,1,2-2h36.854a8.885,8.885,0,0,1,8.881-8.891h42.119c15.209,0,33.11-22.226,51.211-22.226,20.38,0,42.123,22.226,59.452,22.226h42.6a8.885,8.885,0,0,1,8.88,8.891h33.524a2,2,0,0,1,2,2v8.224A2,2,0,0,1,438.519,325.486ZM297.87,298.814A30.562,30.562,0,1,0,328.4,329.376,30.544,30.544,0,0,0,297.87,298.814Zm-37.135,70.013H345a60,60,0,0,1,60,60v124.49a60,60,0,0,1-56.615,59.9V568.859a30,30,0,0,0-30-30H282.91a30,30,0,0,0-30,30v43.934a60,60,0,0,1-52.175-59.476V428.827A60,60,0,0,1,260.735,368.827Zm36.607,188.924h6.606a30,30,0,0,1,30,30V650a30,30,0,0,1-30,30h-6.606a30,30,0,0,1-30-30V587.751A30,30,0,0,1,297.342,557.751Z"/>
</svg>
