<svg id="deposit_negotiable" data-name="deposit negotiable" xmlns="http://www.w3.org/2000/svg" width="800" height="800" viewBox="0 0 800 800">
  <defs>
    <style>
      .cls-1 {
        fill: #111;
        fill-rule: evenodd;
      }
    </style>
  </defs>
  <path id="Rounded_Rectangle_2_copy_4" data-name="Rounded Rectangle 2 copy 4" class="cls-1" d="M697.676,155.125l-0.706.71a7.95,7.95,0,0,1-11.294,0l-13.19-13.276V198a8,8,0,0,1-8,8h-0.97a8,8,0,0,1-8-8V142.143l-12.192,12.271a7.95,7.95,0,0,1-11.294,0l-0.706-.71a8.076,8.076,0,0,1,0-11.367l26.823-27a7.95,7.95,0,0,1,11.294,0l0.706,0.711c0.131,0.132.232,0.281,0.352,0.42,0.115,0.1.244,0.18,0.354,0.29l26.823,27A8.077,8.077,0,0,1,697.676,155.125ZM504.962,494.9c-55.944,62.143-117.007,129.693-185.538,192.117q-11.569-18.036-22.684-35.729-15.079,12.852-30.831,25.228-11.208-18.19-21.792-35.757C311.9,589.691,370.065,531.165,424.61,474.508c55.068-56.674,106.518-111.479,172.962-155.467-32.966-53.375-67.633-107.867-110.35-164.048,10.583-7.057,21.678-13.892,33.424-20.459q11.822,15.212,22.718,30.19c11.98-6.413,24.621-12.542,38.1-18.327,49.5,67.156,85.1,131.043,115.538,191.111C614.478,376.185,562.279,432.837,504.962,494.9Zm-108.7-8.609c-59.641,60.968-124.49,122.647-203.173,173.106-46.82-79.018-80.21-142.74-92.1-195.194C255.134,361.464,310.349,225.522,445.212,122.007c54.888,67.042,96.225,131.226,136.065,194.438C511.3,364.989,456.382,425.283,396.258,486.287Zm-5.49-151.76c-35.445-55.446-80.978-24.608-94.562-9.348-35.56,39.637-48.72,74.247-21.731,125.934C293,487.7,343.5,493.553,376.965,460,409.919,426.328,414.07,371.011,390.768,334.527Zm-28.782,95a1.436,1.436,0,0,1-1.459.474c-16.511-3.507-29.381-5.886-38.906-7.168a1.309,1.309,0,0,1-1.032-.706q-1.846-3.141-3.667-6.265a2.222,2.222,0,0,1-.235-1.511,2.483,2.483,0,0,1,.7-1.423q2.415-2.381,4.82-4.765A33.3,33.3,0,0,0,330.049,397a15.86,15.86,0,0,0,.728-10.472q-9.021,9.1-18.16,18.169a1.552,1.552,0,0,1-1.239.537,1.311,1.311,0,0,1-1.03-.739q-1.427-2.486-2.839-4.962a2.215,2.215,0,0,1-.253-1.5,2.531,2.531,0,0,1,.731-1.413q8.784-8.763,17.442-17.562c-3.742-2.031-8.516-.039-14.431,5.939q-3.051,3.081-6.118,6.158a1.488,1.488,0,0,1-1.212.5,1.234,1.234,0,0,1-1.014-.682q-1.808-3.2-3.589-6.393a2.206,2.206,0,0,1-.238-1.484,2.569,2.569,0,0,1,.723-1.408c11.613-11.772,23.033-23.6,34.4-35.417a1.5,1.5,0,0,1,1.2-.548,1.316,1.316,0,0,1,1.032.722q1.47,2.451,2.949,4.908a2.226,2.226,0,0,1,.3,1.491,2.454,2.454,0,0,1-.69,1.414q-4.82,4.96-9.653,9.923a14.184,14.184,0,0,1,6.8,4.232q3.568-3.642,7.129-7.283a1.523,1.523,0,0,1,1.222-.543,1.349,1.349,0,0,1,1.05.731q1.5,2.472,3.006,4.95a2.23,2.23,0,0,1,.3,1.5,2.438,2.438,0,0,1-.7,1.417q-3.524,3.577-7.054,7.158a28.669,28.669,0,0,1,1.439,16.936,39.919,39.919,0,0,1-8.545,17.194c8.292,1.106,20.227,3.415,36.111,6.973a1.5,1.5,0,0,1,1.242,1.528,2.306,2.306,0,0,1-.682,2.15Q366.21,425.325,361.986,429.526ZM142.364,201.82c-0.11.11-.24,0.187-0.355,0.289-0.12.138-.221,0.287-0.352,0.418l-0.707.707a8,8,0,0,1-11.314,0l-26.87-26.87a8,8,0,0,1,0-11.314l0.707-.707a8,8,0,0,1,11.314,0L127,176.556V121a8,8,0,0,1,8-8h1a8,8,0,0,1,8,8v55.142l13.213-13.213a8,8,0,0,1,11.314,0l0.707,0.707a8,8,0,0,1,0,11.314Z"/>
</svg>
