<svg id="property_facing" data-name="property facing" xmlns="http://www.w3.org/2000/svg" width="800" height="800" viewBox="0 0 800 800">
  <defs>
    <style>
      .cls-1 {
        fill: #111;
        fill-rule: evenodd;
      }
    </style>
  </defs>
  <path id="Ellipse_3_copy_4" data-name="Ellipse 3 copy 4" class="cls-1" d="M100,626V610h42V368h16V610H342V495h76V610h34V495H618V610h24V448h16V610h42v16H100ZM402,511H358v99h44V511Zm200,0H468v4H602v-4Zm0,20H468v4H602v-4Zm0,20H468v4H602v-4Zm0,20H468v4H602v-4Zm0,20H468v4H602v-4Zm59-157.437L480,406V390l22,3.35V366l16,2v27.787L677,420v30l-16-2V433.563Zm-6.664-210.42a19.649,19.649,0,0,1-17.859-11.5h-52.6v52.738A19.713,19.713,0,0,1,575.681,302c-0.554,0-1.1-.038-1.639-0.083-0.542.045-1.085,0.083-1.639,0.083a19.707,19.707,0,0,1-3.277-39.133V211.643h-52.6a19.719,19.719,0,1,1,.662-14.786h51.941V156.283a19.664,19.664,0,1,1,14.748-.664v41.238h51.941A19.666,19.666,0,1,1,654.336,223.143ZM502.619,195.517h-2.236v9.927l-7.719-9.927h-2.235V208.8h2.235v-9.685l7.524,9.685h2.431V195.517ZM580.984,140.7h-7.32v-3.553h6.365v-2h-6.365v-3.516h7.088v-2.115h-9.323V142.8h9.555V140.7Zm0.873,135.821-3.349,9.565-2.96-9.565h-2.013l-2.969,9.565-3.34-9.565h-2.412l4.63,13.285h2.226l2.793-9.1h0.148l2.793,9.1h2.226l4.639-13.285h-2.412Zm71.979-77.848a2.948,2.948,0,0,1,1.605-.4,6.16,6.16,0,0,1,1.99.344,4.519,4.519,0,0,1,1.6.872l1.2-1.689a6.548,6.548,0,0,0-2.166-1.178,7.986,7.986,0,0,0-2.528-.417,5.4,5.4,0,0,0-3.316,1,3.327,3.327,0,0,0-1.341,2.839,3.206,3.206,0,0,0,1.178,2.732,5.183,5.183,0,0,0,1.355.77,18.27,18.27,0,0,0,2.222.649,6.323,6.323,0,0,1,2.059.78,1.384,1.384,0,0,1,.6,1.2,1.453,1.453,0,0,1-.636,1.234,2.856,2.856,0,0,1-1.721.464,6.338,6.338,0,0,1-4.184-1.744l-1.4,1.689a8.088,8.088,0,0,0,5.529,2.143,5.239,5.239,0,0,0,3.438-1.081,3.481,3.481,0,0,0,1.312-2.821,3.28,3.28,0,0,0-1.034-2.63,7.382,7.382,0,0,0-3.08-1.387,9.476,9.476,0,0,1-2.672-.923,1.4,1.4,0,0,1-.626-1.234A1.334,1.334,0,0,1,653.836,198.669ZM308,511v50H232V495h76v16Zm-16,0H248v34h44V511Zm-60-63V385H418v66H232v-3Zm16-13H402V401H248v34Zm289-87v22l-16-2V353.051L320,316,136,352.8V368l-16,2V340l200-40,217,40v8Z"/>
</svg>
