<svg id="furnishing" xmlns="http://www.w3.org/2000/svg" width="800" height="800" viewBox="0 0 800 800">
  <defs>
    <style>
      .cls-1 {
        fill: #111;
        fill-rule: evenodd;
      }
    </style>
  </defs>
  <path class="cls-1" d="M671,568H572.277a7.259,7.259,0,0,1-7.258-7.258v-9.025a7.742,7.742,0,0,1,7.742-7.742h88.255a16,16,0,0,0,16-16V427.025a16,16,0,0,0-16-16h-16v0.407h-72.74a7.259,7.259,0,0,1-7.258-7.259v-9.024a7.742,7.742,0,0,1,7.742-7.742h58.524a7.974,7.974,0,0,1,2.508-.407H671a30,30,0,0,1,30,30V538A30,30,0,0,1,671,568ZM632.538,353.6a36,36,0,1,1,35.929-36A35.965,35.965,0,0,1,632.538,353.6Zm0-65.6a29.6,29.6,0,1,0,29.542,29.6A29.57,29.57,0,0,0,632.538,288Zm2.074,35.337-8.033-7.787a4,4,0,0,1,5.552-5.75l8.033,7.788A4,4,0,0,1,634.612,323.337Zm-70.331,36.921A7.742,7.742,0,0,1,556.539,368h-8.968a7.259,7.259,0,0,1-7.259-7.258V288h0.409V272a16,16,0,0,0-16-16H285.263a16,16,0,0,0-16,16v88.258A7.742,7.742,0,0,1,261.521,368h-8.953a7.259,7.259,0,0,1-7.258-7.258V262a30,30,0,0,1,30-30H534.674a30,30,0,0,1,30,30v37.2a7.968,7.968,0,0,1-.393,2.469v58.589ZM245.719,519.594a16,16,0,0,1-16,16H149.937a16,16,0,0,1-16-16v-84a16,16,0,0,1,16-16h79.782a16,16,0,0,1,16,16v84Zm-17.258-108H155.875V411.2H139.952a16,16,0,0,0-16,16V528a16,16,0,0,0,16,16h88.035a7.742,7.742,0,0,1,7.742,7.742v9A7.258,7.258,0,0,1,228.471,568H130a30,30,0,0,1-30-30V417.2a30,30,0,0,1,30-30h37.05a7.994,7.994,0,0,1,2.473.394h58.454a7.742,7.742,0,0,1,7.742,7.742v9A7.259,7.259,0,0,1,228.461,411.594Zm-59-57.994a36,36,0,1,1,35.928-36A35.965,35.965,0,0,1,169.462,353.6Zm0-65.6A29.6,29.6,0,1,0,199,317.6,29.571,29.571,0,0,0,169.462,288Zm2.073,35.337L163.5,315.55a4,4,0,0,1,5.552-5.75l8.033,7.788A4,4,0,0,1,171.535,323.337ZM296.875,266h99.719v96a16,16,0,0,1-16,16H296.875a16,16,0,0,1-16-16V282A16,16,0,0,1,296.875,266ZM404.992,436.8c37.04,0,67.066,18.625,67.066,41.6S442.032,520,404.992,520s-67.066-18.625-67.066-41.6S367.952,436.8,404.992,436.8Zm-65.469,42.4c0,19,28.954,34.4,64.671,34.4s64.671-15.4,64.671-34.4-28.955-34.4-64.671-34.4S339.523,460.2,339.523,479.2Zm29.091,7.673a3.931,3.931,0,0,1-5.628-.094,4.1,4.1,0,0,1,.093-5.728l8.008-7.887a3.932,3.932,0,0,1,5.628.1,4.1,4.1,0,0,1-.094,5.728Zm71.136-13.709a3.93,3.93,0,0,1,5.627.1,4.1,4.1,0,0,1-.092,5.728l-8.009,7.886a3.93,3.93,0,0,1-5.627-.094,4.1,4.1,0,0,1,.093-5.728ZM415,362V266h99.719a16,16,0,0,1,16,16v80a16,16,0,0,1-16,16H431A16,16,0,0,1,415,362Zm156,57.44h80a16,16,0,0,1,16,16v84.12a16,16,0,0,1-16,16H571a16,16,0,0,1-16-16V435.44A16,16,0,0,1,571,419.44Z"/>
</svg>
