<svg id="prepared_live_type" data-name="prepared live type" xmlns="http://www.w3.org/2000/svg" width="800" height="800" viewBox="0 0 800 800">
  <defs>
    <style>
      .cls-1 {
        fill: #111;
        fill-rule: evenodd;
      }
    </style>
  </defs>
  <path id="Rectangle_2_copy_3" data-name="Rectangle 2 copy 3" class="cls-1" d="M507.512,697.4C392.827,706.106,292.8,620.228,284.087,505.584c-7.633-100.465,57.4-189.677,150.783-216.066,7.718,10.369,15.456,23.274,19.2,36.989A74.039,74.039,0,0,1,455.9,335.4a158.565,158.565,0,1,0,72.387.163,177.273,177.273,0,0,0-4.957-26.769,187.238,187.238,0,0,0-9.391-25.988c98.029,10.389,177.728,89.483,185.46,191.254C708.106,588.7,622.2,688.693,507.512,697.4Zm9.993-336.091c0,94.958-63.6,175.06-150.545,200.074-7.362-9.67-14.522-21.444-18.236-34.117a75.854,75.854,0,0,1-2.426-11.844,158.577,158.577,0,1,0-73.288.185,185.672,185.672,0,0,0,6.226,33.536,172.543,172.543,0,0,0,6.915,19.062C182.01,556.714,101,468.475,101,361.309c0-98.569,68.532-181.13,160.561-202.686l-7.112-12.8H365.517l-7.286,13.11C449.61,180.959,517.505,263.2,517.505,361.309ZM268.65,115.892C272.861,108.315,290.985,102,290.985,102h38s18.634,7.233,23.231,15.5l13.3,23.939H254.449Z"/>
</svg>
