<svg id="parking" xmlns="http://www.w3.org/2000/svg" width="800" height="800" viewBox="0 0 800 800">
  <defs>
    <style>
      .cls-1 {
        fill: #111;
        fill-rule: evenodd;
      }
    </style>
  </defs>
  <path id="Rounded_Rectangle_2" data-name="Rounded Rectangle 2" class="cls-1" d="M700,391.222l-93.167-38.57L437.879,423.616l240.843,98.615-14.77,8.585-241.7-100.06,0.287-.7L242.705,505.592l236.017,96.639-14.77,8.585L226.361,512.457l-39.016,16.387-3.393,1.972-0.656-.271L100,565.53V551.893l66.94-28.12L100,496.061V482.422l84.379,34.025L352.2,445.95,122.252,350.756l15.77-5.586L354,432.262V288.039l-41.748-17.283,15.77-5.586L354,275.646V190h12.572v6.6h93.96L487,224.317l-26.468,29.038h-93.96v27.36l193.357,77.97L700,299.844v13.677l-76.82,32.265L700,377.241v13.981Zm-248.672-162.3a6.8,6.8,0,0,0,4.931,1.934,6.906,6.906,0,0,0,5.38-2.069v-4.536h-2.245V227.9a5.742,5.742,0,0,1-3.163.816,4.766,4.766,0,0,1-3.187-8.1,4.713,4.713,0,0,1,3.382-1.3,5.974,5.974,0,0,1,1.836.255,4.619,4.619,0,0,1,1.568.923l1.2-1.707a6.965,6.965,0,0,0-4.768-1.67,6.756,6.756,0,0,0-4.894,1.976,6.612,6.612,0,0,0-2.027,4.94A6.542,6.542,0,0,0,451.328,228.926Zm-17.01,1.786h2.235v-9.686l7.524,9.686h2.431V217.426h-2.236v9.927l-7.719-9.927h-2.235v13.286Zm-5.919,0h2.236V217.426H428.4v13.286Zm-13.369,0h2.236v-3.721l1.939-2.1,4.407,5.817h2.662l-5.418-7.469,5.344-5.817h-2.848l-6.086,6.485v-6.485H415.03v13.286Zm-13.823,0h2.236v-4.463h2.95l3.173,4.463h2.848l-3.479-4.825a3.866,3.866,0,0,0,2.867-4.147,3.919,3.919,0,0,0-1.309-3.288,7.148,7.148,0,0,0-4.351-1.026h-4.935v13.286Zm-13.545,0,1.327-3.025h6.651l1.336,3.025h2.394l-5.854-13.286h-2.394l-5.854,13.286h2.394Zm-12.812,0h2.236v-3.9h2.356a6.948,6.948,0,0,0,4.347-1.122,4.241,4.241,0,0,0,1.414-3.535,4.393,4.393,0,0,0-1.387-3.572,6.828,6.828,0,0,0-4.411-1.16H374.85v13.286Zm-8.278,62.531V437.331l3.133,1.264,172.713-72.554ZM382.9,221.977a2.946,2.946,0,0,1-.673,2.092,3.459,3.459,0,0,1-2.537.714h-2.607v-5.316h2.282a4.959,4.959,0,0,1,2.681.566A2.159,2.159,0,0,1,382.9,221.977Zm11.828,3.641h-4.824l2.412-5.473Zm14.074-5.668a2.017,2.017,0,0,1,.7,1.786,2.363,2.363,0,0,1-.687,1.892,4.119,4.119,0,0,1-2.588.589h-2.792v-4.75H406.3A4.689,4.689,0,0,1,408.805,219.95Zm89.217-24.78L700,276.616V290.9L482.252,200.756Z"/>
</svg>
