<svg id="property_on_floor" data-name="property on floor" xmlns="http://www.w3.org/2000/svg" width="800" height="800" viewBox="0 0 800 800">
  <defs>
    <style>
      .cls-1 {
        fill: #111;
        fill-rule: evenodd;
      }
    </style>
  </defs>
  <path id="Rectangle_2_copy" data-name="Rectangle 2 copy" class="cls-1" d="M109,570.392V458.3H692V570.392H109Zm40-130.109V328.19H652V440.283H312V359.717H224v80.566H149Zm411-24.02h27V389.241H560v27.022Zm0-30.024h27V359.216H560v27.023Zm-30,30.024h27V389.241H530v27.022Zm0-30.024h27V359.216H530v27.023ZM410,416.48h27V389.457H410V416.48Zm0-30.025h27V359.432H410v27.023ZM380,416.48h27V389.457H380V416.48Zm0-30.025h27V359.432H380v27.023ZM109,198.082H692V310.175H109V198.082Zm551-13.011H387V119.017H357V99H690v20.017H660v66.054Zm-63-48.039H570v27.022h27V137.032Zm30,0H600v27.022h27V137.032ZM652,700.5H312V619.933H224V700.5H149V588.406H652V700.5ZM407,619.432H380v27.023h27V619.432Zm0,30.025H380V676.48h27V649.457Zm30-30.025H410v27.023h27V619.432Zm0,30.025H410V676.48h27V649.457Zm120-30.025H530v27.023h27V619.432Zm0,30.025H530V676.48h27V649.457Zm30-30.025H560v27.023h27V619.432Zm0,30.025H560V676.48h27V649.457Z"/>
</svg>
