<svg id="ready_to_occupy" data-name="ready to occupy" xmlns="http://www.w3.org/2000/svg" width="800" height="800" viewBox="0 0 800 800">
  <defs>
    <style>
      .cls-1 {
        fill: #111;
        fill-rule: evenodd;
      }
    </style>
  </defs>
  <path id="Rounded_Rectangle_2_copy_2" data-name="Rounded Rectangle 2 copy 2" class="cls-1" d="M659,565H509s-4.38,23.192-26.234,23.192C452.338,588.192,415,586.872,415,622v77H325V345.644l-9-3.807V699H127V414.314l-21,8.24v-50l209-82v0.86l10,4.23V295l187,78.5v-9L380.983,309.767,466,280.784V199.717l-88,30v78.8L325,286.38V224.707l-20,7.847v-50l209-82v0.86l149,79.519V566.212ZM266,409.717l-88,30v81.067l88-30V409.717Zm145,29.715-27-10v27.023l27,10V439.432Zm0,30.025-27-10V486.48l27,10V469.457Zm30-20.025-27-10v27.023l27,10V449.432Zm0,30.025-27-10V496.48l27,10V479.457ZM601,269.432l-27-10v27.023l27,10V269.432Zm0,30.025-27-10V316.48l27,10V299.457Zm30-20.025-27-10v27.023l27,10V279.432Zm0,30.025-27-10V326.48l27,10V309.457ZM629,405L545,505l-31-26-18,25,51,41,97-144ZM428,662.422V632a30,30,0,0,1,30-30h48v73.844A23.978,23.978,0,0,0,469,696c0,0.338.037,0.666,0.05,1H458a29.98,29.98,0,0,1-29.593-25.283A4.98,4.98,0,0,1,428,662.422ZM452,638a8,8,0,0,0,8,8h32V613H460a8,8,0,0,0-8,8v17Zm74-54.5H700V686H664.8a23.968,23.968,0,0,0-43.594,0H516V593.5A10,10,0,0,1,526,583.5Zm6.5,26.5h156a2.5,2.5,0,0,0,0-5h-156A2.5,2.5,0,0,0,532.5,610Z"/>
</svg>
