<svg id="security_deposit" data-name="security deposit" xmlns="http://www.w3.org/2000/svg" width="800" height="800" viewBox="0 0 800 800">
  <defs>
    <style>
      .cls-1 {
        fill: #111;
        fill-rule: evenodd;
      }
    </style>
  </defs>
  <path id="Rectangle_2_copy_5" data-name="Rectangle 2 copy 5" class="cls-1" d="M670.063,529.881c-49.12,62.529-98.768,111.454-146.216,154.678-56.471-65.952-121.756-99.486-193.307-136.346-71.279-35.578-148.825-74.482-223.557-121.547q13.63-15.209,27.061-29.912-15.633-10.581-31-21.9,13.863-14.916,27.313-29.1c64.108,49.27,132.628,87.8,198.514,123.49,66.033,36.163,129.431,69.479,186.7,119.314,40.659-43.841,81.913-89.527,122.674-143.035,9.168,7.925,18.263,16.375,27.276,25.493q-10.971,14.722-21.965,28.536C652.49,508.922,661.328,518.972,670.063,529.881ZM310.856,446.2c-71.137-39.271-144.251-83.144-210.57-142.573,60.7-63.081,110.753-109.941,155.916-134.19,133.489,115.439,272.37,131.588,401.681,229.121C610.234,466,561.771,520.279,513.821,572.933,451.47,521.009,382.151,485.906,310.856,446.2Zm162.412-92.546c-9.215-13.195-8.836-41.506-28.558-50.721-22.564-10.64-62.307-3.513-84.226-6.041-22.522-2.392-26.5-13.615-44.313,2.542-35.41,31.2-46.519,109.546,2.154,136.505,48.515,26.176,130.965-3.992,164.587-41.78C502.2,372.343,485.492,370.88,473.268,353.655ZM330.11,421.8c-39.318-22.2-30.926-84.33-2.022-110.642,14.565-13.6,17.858-4.482,36.312-2.724,17.964,1.818,50.57-4.246,69.045,4.936,16.143,7.944,15.781,31.285,23.334,42.063,10.014,14.12,23.741,15.275,7.912,32.883C437.094,418.989,369.4,443.505,330.11,421.8Zm93.54-68.4c-13.737-7.441-27.5-14.92-41.265-22.592a2.447,2.447,0,0,0-1.476-.306,2.106,2.106,0,0,0-1.3.6q-2.476,2.446-4.961,4.921a1.175,1.175,0,0,0-.369,1.105,1.416,1.416,0,0,0,.763.986q3.6,2.034,7.209,4.053c6.993,3.912,10.034,7.79,9.118,11.742q-10.276-5.724-20.558-11.553a2.416,2.416,0,0,0-1.483-.312,2.116,2.116,0,0,0-1.312.613q-1.916,1.926-3.836,3.868a1.25,1.25,0,0,0-.418,1.135,1.481,1.481,0,0,0,.808,1q10.65,6.095,21.3,12.058a15.117,15.117,0,0,1-9.8,1.992,31.723,31.723,0,0,1-12.241-4.365q-2.8-1.6-5.6-3.215a2.365,2.365,0,0,0-1.485-.28,2.12,2.12,0,0,0-1.328.6q-2.408,2.467-4.824,4.961a1.243,1.243,0,0,0-.386,1.126c1.239,9.073,2.321,21.5,3.29,37.55a1.37,1.37,0,0,0,.806,1.22q4.929,2.811,9.853,5.6a2.2,2.2,0,0,0,2.148.081,1.432,1.432,0,0,0,1.088-1.53c-0.763-15.491-1.672-27.037-2.76-34.933A38.029,38.029,0,0,0,382.586,373a27.329,27.329,0,0,0,15.19-5.626q4.185,2.333,8.365,4.658a2.327,2.327,0,0,0,1.479.281,2.124,2.124,0,0,0,1.3-.66q1.894-2.016,3.784-4.019a1.286,1.286,0,0,0,.4-1.15,1.451,1.451,0,0,0-.809-0.984q-4.248-2.345-8.5-4.7a13.519,13.519,0,0,0,2.161-7.321q5.786,3.18,11.565,6.342A2.338,2.338,0,0,0,419,360.1a2.121,2.121,0,0,0,1.3-.651q1.882-1.983,3.76-3.956a1.253,1.253,0,0,0,.4-1.13A1.429,1.429,0,0,0,423.65,353.4Z"/>
</svg>
