<svg id="water_tank" data-name="water tank" xmlns="http://www.w3.org/2000/svg" width="800" height="800" viewBox="0 0 800 800">
  <defs>
    <style>
      .cls-1 {
        fill: #111;
        fill-rule: evenodd;
      }
    </style>
  </defs>
  <path class="cls-1" d="M287.509,271.572H502.358v16.679H287.509V271.572Zm7.306-5.559V160.38H495.053V266.013H294.815Zm-7.306-127.872H502.358V154.82H287.509V138.141ZM392.627,97c93.875,0,99.583,38.917,99.583,38.917H297.658S303.239,97,392.627,97ZM297.658,290.475H492.21s-1.895,12.879-21.371,23.819L548,699H520.17l-8.119-40.477H287.789L280.83,699H253l66.045-384.161C299.576,303.786,297.658,290.475,297.658,290.475ZM343.443,334.8l-16.452,95.7,50.4-57.181Zm85.78,123.576H365.1l32.062,30.29ZM344.011,576.24h106.3l-53.15-50.211Zm84.823-144.55L397.16,395.751,365.487,431.69h63.347Zm-36.207-102.3c-5.193,0-10.1-.135-14.738-0.383l19.271,21.867,19.8-22.469C409.589,329.039,401.51,329.393,392.627,329.393Zm55.191,8.879-30.884,35.042,49.082,55.691Zm24.089,120.1h-3.136l-51.837,48.971,72.924,68.893h5.69ZM292.377,631.837H506.7l-5.8-28.91H297.347Zm9.558-55.6h2.528l72.923-68.893L325.55,458.376H322.2Z"/>
</svg>
